<svg fill="none" fill-rule="evenodd" height="24px" stroke="none" stroke-width="1" version="1.1" viewBox="0 0 24 24" width="24px"
    xmlns="http://www.w3.org/2000/svg"
    xmlns:xlink="http://www.w3.org/1999/xlink">
    <path fill="#424242" d="M9.7,9.49 L13.99,13.79 L7.45,20.33 L6.73,19.61 L5.3,21.04 C4.51,21.83 3.23,21.83 2.44,21.04 C1.65,20.25 1.65,18.96 2.44,18.18 L3.87,16.75 L3.15,16.03 L9.7,9.49 L9.7,9.49 Z">
    </path>
    <path color="#ff5252" class="ink-icon-color" d="M21.26,3.69 L19.8,2.22 C19.02,1.44 17.75,1.44 16.97,2.22 L10.76,8.43 L15.05,12.73 L21.26,6.52 C22.05,5.74 22.05,4.47 21.26,3.69 L21.26,3.69 Z">
    </path>
    <path fill="#424242" class="ink-cap-border" d="M18.4,2.6c0.3,0,0.5,0.1,0.7,0.3l1.5,1.5c0.2,0.2,0.3,0.4,0.3,0.7s-0.1,0.5-0.3,0.7l-5.5,5.5l-2.9-2.9 l5.5-5.5C17.9,2.7,18.1,2.6,18.4,2.6 M18.4,1.6c-0.5,0-1,0.2-1.4,0.6l-6.2,6.2l4.3,4.3l6.2-6.2c0.8-0.8,0.8-2,0-2.8l-1.5-1.5 C19.4,1.8,18.9,1.6,18.4,1.6L18.4,1.6z">
    </path>
</svg>